<?xml version="1.0" encoding="UTF-8"?>
<svg width="1313px" height="585px" viewBox="0 0 1313 585" version="1.1" xmlns="http://www.w3.org/2000/svg" xmlns:xlink="http://www.w3.org/1999/xlink">
    <title>Group 33</title>
    <defs>
        <filter id="filter-1">
            <feColorMatrix in="SourceGraphic" type="matrix" values="0 0 0 0 1.000000 0 0 0 0 1.000000 0 0 0 0 1.000000 0 0 0 1.000000 0"></feColorMatrix>
        </filter>
        <filter id="filter-2">
            <feColorMatrix in="SourceGraphic" type="matrix" values="0 0 0 0 1.000000 0 0 0 0 1.000000 0 0 0 0 1.000000 0 0 0 1.000000 0"></feColorMatrix>
        </filter>
        <filter id="filter-3">
            <feColorMatrix in="SourceGraphic" type="matrix" values="0 0 0 0 1.000000 0 0 0 0 1.000000 0 0 0 0 1.000000 0 0 0 1.000000 0"></feColorMatrix>
        </filter>
        <filter id="filter-4">
            <feColorMatrix in="SourceGraphic" type="matrix" values="0 0 0 0 1.000000 0 0 0 0 1.000000 0 0 0 0 1.000000 0 0 0 1.000000 0"></feColorMatrix>
        </filter>
        <filter id="filter-5">
            <feColorMatrix in="SourceGraphic" type="matrix" values="0 0 0 0 1.000000 0 0 0 0 1.000000 0 0 0 0 1.000000 0 0 0 1.000000 0"></feColorMatrix>
        </filter>
        <filter id="filter-6">
            <feColorMatrix in="SourceGraphic" type="matrix" values="0 0 0 0 1.000000 0 0 0 0 1.000000 0 0 0 0 1.000000 0 0 0 1.000000 0"></feColorMatrix>
        </filter>
        <filter id="filter-7">
            <feColorMatrix in="SourceGraphic" type="matrix" values="0 0 0 0 1.000000 0 0 0 0 1.000000 0 0 0 0 1.000000 0 0 0 1.000000 0"></feColorMatrix>
        </filter>
        <filter id="filter-8">
            <feColorMatrix in="SourceGraphic" type="matrix" values="0 0 0 0 1.000000 0 0 0 0 1.000000 0 0 0 0 1.000000 0 0 0 1.000000 0"></feColorMatrix>
        </filter>
        <filter id="filter-9">
            <feColorMatrix in="SourceGraphic" type="matrix" values="0 0 0 0 1.000000 0 0 0 0 1.000000 0 0 0 0 1.000000 0 0 0 1.000000 0"></feColorMatrix>
        </filter>
        <filter id="filter-10">
            <feColorMatrix in="SourceGraphic" type="matrix" values="0 0 0 0 1.000000 0 0 0 0 1.000000 0 0 0 0 1.000000 0 0 0 1.000000 0"></feColorMatrix>
        </filter>
        <filter id="filter-11">
            <feColorMatrix in="SourceGraphic" type="matrix" values="0 0 0 0 1.000000 0 0 0 0 1.000000 0 0 0 0 1.000000 0 0 0 1.000000 0"></feColorMatrix>
        </filter>
        <filter id="filter-12">
            <feColorMatrix in="SourceGraphic" type="matrix" values="0 0 0 0 1.000000 0 0 0 0 1.000000 0 0 0 0 1.000000 0 0 0 1.000000 0"></feColorMatrix>
        </filter>
        <filter id="filter-13">
            <feColorMatrix in="SourceGraphic" type="matrix" values="0 0 0 0 1.000000 0 0 0 0 1.000000 0 0 0 0 1.000000 0 0 0 1.000000 0"></feColorMatrix>
        </filter>
        <filter id="filter-14">
            <feColorMatrix in="SourceGraphic" type="matrix" values="0 0 0 0 1.000000 0 0 0 0 1.000000 0 0 0 0 1.000000 0 0 0 1.000000 0"></feColorMatrix>
        </filter>
        <filter id="filter-15">
            <feColorMatrix in="SourceGraphic" type="matrix" values="0 0 0 0 1.000000 0 0 0 0 1.000000 0 0 0 0 1.000000 0 0 0 1.000000 0"></feColorMatrix>
        </filter>
        <filter id="filter-16">
            <feColorMatrix in="SourceGraphic" type="matrix" values="0 0 0 0 1.000000 0 0 0 0 1.000000 0 0 0 0 1.000000 0 0 0 1.000000 0"></feColorMatrix>
        </filter>
        <filter id="filter-17">
            <feColorMatrix in="SourceGraphic" type="matrix" values="0 0 0 0 1.000000 0 0 0 0 1.000000 0 0 0 0 1.000000 0 0 0 1.000000 0"></feColorMatrix>
        </filter>
        <filter id="filter-18">
            <feColorMatrix in="SourceGraphic" type="matrix" values="0 0 0 0 1.000000 0 0 0 0 1.000000 0 0 0 0 1.000000 0 0 0 1.000000 0"></feColorMatrix>
        </filter>
        <filter id="filter-19">
            <feColorMatrix in="SourceGraphic" type="matrix" values="0 0 0 0 1.000000 0 0 0 0 1.000000 0 0 0 0 1.000000 0 0 0 1.000000 0"></feColorMatrix>
        </filter>
        <filter id="filter-20">
            <feColorMatrix in="SourceGraphic" type="matrix" values="0 0 0 0 1.000000 0 0 0 0 1.000000 0 0 0 0 1.000000 0 0 0 1.000000 0"></feColorMatrix>
        </filter>
        <filter id="filter-21">
            <feColorMatrix in="SourceGraphic" type="matrix" values="0 0 0 0 1.000000 0 0 0 0 1.000000 0 0 0 0 1.000000 0 0 0 1.000000 0"></feColorMatrix>
        </filter>
        <filter id="filter-22">
            <feColorMatrix in="SourceGraphic" type="matrix" values="0 0 0 0 1.000000 0 0 0 0 1.000000 0 0 0 0 1.000000 0 0 0 1.000000 0"></feColorMatrix>
        </filter>
        <filter id="filter-23">
            <feColorMatrix in="SourceGraphic" type="matrix" values="0 0 0 0 1.000000 0 0 0 0 1.000000 0 0 0 0 1.000000 0 0 0 1.000000 0"></feColorMatrix>
        </filter>
        <filter id="filter-24">
            <feColorMatrix in="SourceGraphic" type="matrix" values="0 0 0 0 1.000000 0 0 0 0 1.000000 0 0 0 0 1.000000 0 0 0 1.000000 0"></feColorMatrix>
        </filter>
        <filter id="filter-25">
            <feColorMatrix in="SourceGraphic" type="matrix" values="0 0 0 0 1.000000 0 0 0 0 1.000000 0 0 0 0 1.000000 0 0 0 1.000000 0"></feColorMatrix>
        </filter>
        <filter id="filter-26">
            <feColorMatrix in="SourceGraphic" type="matrix" values="0 0 0 0 1.000000 0 0 0 0 1.000000 0 0 0 0 1.000000 0 0 0 1.000000 0"></feColorMatrix>
        </filter>
        <filter id="filter-27">
            <feColorMatrix in="SourceGraphic" type="matrix" values="0 0 0 0 1.000000 0 0 0 0 1.000000 0 0 0 0 1.000000 0 0 0 0.928322 0"></feColorMatrix>
        </filter>
        <filter id="filter-28">
            <feColorMatrix in="SourceGraphic" type="matrix" values="0 0 0 0 1.000000 0 0 0 0 1.000000 0 0 0 0 1.000000 0 0 0 1.000000 0"></feColorMatrix>
        </filter>
        <filter id="filter-29">
            <feColorMatrix in="SourceGraphic" type="matrix" values="0 0 0 0 1.000000 0 0 0 0 1.000000 0 0 0 0 1.000000 0 0 0 1.000000 0"></feColorMatrix>
        </filter>
        <filter id="filter-30">
            <feColorMatrix in="SourceGraphic" type="matrix" values="0 0 0 0 1.000000 0 0 0 0 1.000000 0 0 0 0 1.000000 0 0 0 1.000000 0"></feColorMatrix>
        </filter>
        <filter id="filter-31">
            <feColorMatrix in="SourceGraphic" type="matrix" values="0 0 0 0 1.000000 0 0 0 0 1.000000 0 0 0 0 1.000000 0 0 0 1.000000 0"></feColorMatrix>
        </filter>
        <filter id="filter-32">
            <feColorMatrix in="SourceGraphic" type="matrix" values="0 0 0 0 1.000000 0 0 0 0 1.000000 0 0 0 0 1.000000 0 0 0 1.000000 0"></feColorMatrix>
        </filter>
        <filter id="filter-33">
            <feColorMatrix in="SourceGraphic" type="matrix" values="0 0 0 0 1.000000 0 0 0 0 1.000000 0 0 0 0 1.000000 0 0 0 1.000000 0"></feColorMatrix>
        </filter>
        <filter id="filter-34">
            <feColorMatrix in="SourceGraphic" type="matrix" values="0 0 0 0 1.000000 0 0 0 0 1.000000 0 0 0 0 1.000000 0 0 0 1.000000 0"></feColorMatrix>
        </filter>
        <filter id="filter-35">
            <feColorMatrix in="SourceGraphic" type="matrix" values="0 0 0 0 1.000000 0 0 0 0 1.000000 0 0 0 0 1.000000 0 0 0 1.000000 0"></feColorMatrix>
        </filter>
        <filter id="filter-36">
            <feColorMatrix in="SourceGraphic" type="matrix" values="0 0 0 0 1.000000 0 0 0 0 1.000000 0 0 0 0 1.000000 0 0 0 1.000000 0"></feColorMatrix>
        </filter>
    </defs>
    <g id="Welcome" stroke="none" stroke-width="1" fill="none" fill-rule="evenodd">
        <g id="Group-33" transform="translate(-305.000000, -7899.000000)" filter="url(#filter-1)">
            <g transform="translate(305.000000, 7899.000000)">
                <g filter="url(#filter-2)" id="1a">
                    <g transform="translate(1021.000000, 438.000000)">
                        <line x1="0" y1="145.729953" x2="145.514035" y2="0" id="Path" fill="#000000" fill-rule="nonzero"></line>
                        <rect id="Rectangle" fill="#000000" fill-rule="nonzero" x="4.63701781" y="68.189487" width="65.6595413" height="18.7177536"></rect>
                        <rect id="Rectangle" fill="#000000" fill-rule="nonzero" x="51.5907661" y="90.4612444" width="18.6900208" height="50.3562855"></rect>
                    </g>
                </g>
                <g filter="url(#filter-3)" id="2a">
                    <g transform="translate(1021.000000, 0.000000)">
                        <line x1="0" y1="145.729953" x2="145.514035" y2="0" id="Path" fill="#000000" fill-rule="nonzero"></line>
                        <rect id="Rectangle" fill-opacity="0.198914855" fill="#000000" fill-rule="nonzero" x="4.41620744" y="4.70708064" width="18.6900208" height="136.363178"></rect>
                    </g>
                </g>
                <g filter="url(#filter-4)" id="3a">
                    <g transform="translate(584.000000, 291.000000)">
                        <line x1="0" y1="145.729953" x2="145.514035" y2="0" id="Path" fill="#000000" fill-rule="nonzero"></line>
                        <rect id="Rectangle" fill-opacity="0.197450011" fill="#000000" fill-rule="nonzero" x="4.06921971" y="3.53820827" width="28.4529936" height="18.7177536"></rect>
                        <rect id="Rectangle" fill-opacity="0.197450011" fill="#000000" fill-rule="nonzero" x="4.06921971" y="63.7193399" width="59.1298631" height="18.7177536"></rect>
                        <rect id="Rectangle" fill-opacity="0.197450011" fill="#000000" fill-rule="nonzero" x="4.06921971" y="123.473991" width="28.4529936" height="18.7177536"></rect>
                    </g>
                </g>
                <g filter="url(#filter-5)" id="2b">
                    <g transform="translate(1167.000000, 291.000000)">
                        <line x1="0" y1="0" x2="145.514035" y2="145.729953" id="Path" fill="#000000" fill-rule="nonzero"></line>
                        <rect id="Rectangle" fill="#000000" fill-rule="nonzero" x="4.41620744" y="4.45435148" width="7.1132484" height="136.363178"></rect>
                    </g>
                </g>
                <g filter="url(#filter-6)" id="3b">
                    <g transform="translate(730.000000, 0.000000)">
                        <line x1="0" y1="0" x2="145.514035" y2="145.729953" id="Path" fill="#000000" fill-rule="nonzero"></line>
                        <path d="M33.8786199,141.275601 L5.48871496,141.275601 L5.48871496,133.693727 L33.8786199,133.693727 L33.8786199,141.275601 Z M64.5554894,77.0981899 L5.42562628,77.0981899 L5.42562628,69.5005195 L64.5554894,69.5005195 L64.5554894,77.0981899 Z M33.8786199,12.4785024 L5.48871496,12.4785024 L5.48871496,4.89662751 L33.8786199,4.89662751 L33.8786199,12.4785024 Z" id="Shape" fill="#000000" fill-rule="nonzero"></path>
                    </g>
                </g>
                <g filter="url(#filter-7)" id="4a">
                    <g transform="translate(730.000000, 147.000000)">
                        <line x1="0" y1="145.729953" x2="145.514035" y2="0" id="Path" fill="#000000" fill-rule="nonzero"></line>
                        <rect id="Rectangle" fill-opacity="0.20276135" fill="#000000" fill-rule="nonzero" x="32.2225421" y="3.53820827" width="83.7817639" height="18.7177536"></rect>
                        <rect id="Rectangle" fill-opacity="0.20276135" fill="#000000" fill-rule="nonzero" x="32.2225421" y="123.473991" width="83.7817639" height="18.7177536"></rect>
                    </g>
                </g>
                <g filter="url(#filter-8)" id="4b">
                    <g transform="translate(876.000000, 438.000000)">
                        <line x1="0" y1="0" x2="145.514035" y2="145.729953" id="Path" fill="#000000" fill-rule="nonzero"></line>
                        <path d="M116.004306,141.275601 L32.2225421,141.275601 L32.2225421,133.693727 L116.004306,133.693727 L116.004306,141.275601 Z M116.004306,12.4785024 L32.2225421,12.4785024 L32.2225421,4.89662751 L116.004306,4.89662751 L116.004306,12.4785024 Z" id="Shape" fill="#000000" fill-rule="nonzero"></path>
                    </g>
                </g>
                <g filter="url(#filter-9)" id="5a">
                    <g transform="translate(437.000000, 0.000000)">
                        <line x1="0" y1="145.729953" x2="145.514035" y2="0" id="Path" fill="#000000" fill-rule="nonzero"></line>
                        <rect id="Rectangle" fill="#000000" fill-rule="nonzero" x="20.0306552" y="123.884676" width="52.9156284" height="18.7177536"></rect>
                        <polygon id="Path" fill="#000000" fill-rule="nonzero" points="71.2902057 76.6717095 67.4733407 72.1225846 59.2718126 62.3451251 3.02825653 109.605478 15.0466496 123.947858"></polygon>
                    </g>
                </g>
                <g filter="url(#filter-10)" id="5b">
                    <g transform="translate(0.000000, 438.000000)">
                        <line x1="0" y1="0" x2="145.514035" y2="145.729953" id="Path" fill="#000000" fill-rule="nonzero"></line>
                        <polygon id="Path" fill-opacity="0.19741928" fill="#000000" fill-rule="nonzero" points="8.54851582 140.375254 65.3756422 93.8414969 61.1171565 89.1344163 4.46352394 135.494422"></polygon>
                        <rect id="Rectangle" fill-opacity="0.19741928" fill="#000000" fill-rule="nonzero" x="20.014883" y="133.693727" width="52.9156284" height="6.68152722"></rect>
                    </g>
                </g>
                <g id="6a" transform="translate(146.000000, 0.000000)" fill="#000000" fill-rule="nonzero">
                    <line x1="0" y1="145.729953" x2="145.514035" y2="0" id="Path"></line>
                    <polygon id="Rectangle" fill-opacity="0.196775636" transform="translate(50.279457, 79.106562) rotate(-75.000000) translate(-50.279457, -79.106562) " points="-13.6591056 69.7843099 114.224952 69.736936 114.218019 88.4288145 -13.6660388 88.4761884"></polygon>
                    <polygon id="Rectangle" fill-opacity="0.196775636" transform="translate(103.043677, 73.118433) rotate(-17.000000) translate(-103.043677, -73.118433) " points="93.7266483 2.72246216 112.41904 2.71470816 112.360705 143.514403 93.6683134 143.522157"></polygon>
                </g>
                <g filter="url(#filter-11)" id="6b">
                    <g transform="translate(584.000000, 147.000000)">
                        <line x1="0" y1="0" x2="145.514035" y2="145.729953" id="Path" fill="#000000" fill-rule="nonzero"></line>
                        <path d="M80.2961145,4.45435148 L120.751729,138.716719 L113.55962,140.81753 L73.1040052,6.55516264 L80.2961145,4.45435148 Z M66.7320488,17.8174059 L74.018791,19.9498082 L36.7964712,140.81753 L29.509729,138.685128 L66.7320488,17.8174059 Z" id="Shape" fill="#000000" fill-rule="nonzero"></path>
                    </g>
                </g>
                <g filter="url(#filter-12)" id="7a">
                    <g transform="translate(876.000000, 291.000000)">
                        <line x1="0" y1="145.729953" x2="145.514035" y2="0" id="Path" fill="#000000" fill-rule="nonzero"></line>
                        <path d="M63.7511088,75.1869257 L59.7134334,80.162531 L74.7916273,91.8038681 L78.5927202,86.8756494 C83.1898194,80.6993248 90.442498,77.0763982 98.1344381,77.1139855 C111.820043,77.3015081 122.861671,88.3805425 123.022921,102.086786 L123.022921,108.405015 L141.949525,108.405015 L141.949525,102.086786 C141.949525,78.4408136 121.808464,58.4436187 98.1344381,58.4436187 C84.7516903,58.602143 72.1402962,64.7433878 63.7511088,75.1869257 Z" id="Path" fill-opacity="0.204296405" fill="#000000" fill-rule="nonzero"></path>
                        <rect id="Rectangle" fill-opacity="0.204296405" fill="#000000" fill-rule="nonzero" x="123.322593" y="112.322317" width="18.6900208" height="29.4113562"></rect>
                    </g>
                </g>
                <g filter="url(#filter-13)" id="7b">
                    <g transform="translate(1167.000000, 147.000000)">
                        <line x1="0" y1="0" x2="145.514035" y2="145.729953" id="Path" fill="#000000" fill-rule="nonzero"></line>
                        <path d="M139.07899,107.85217 C139.07899,87.665428 121.729604,70.4166627 101.525454,70.4166627 C90.0135461,70.5883682 79.1798219,75.9003096 71.9841812,84.9012028 L77.0470476,88.8027093 C82.8174582,81.0826745 91.8964044,76.5540411 101.525454,76.5927316 C118.676853,76.7893431 132.528055,90.6751318 132.707033,107.85217 L139.07899,107.85217 Z" id="Path" fill="#000000" fill-rule="nonzero"></path>
                        <rect id="Rectangle" fill="#000000" fill-rule="nonzero" x="132.407362" y="110.963898" width="6.67162766" height="29.4113562"></rect>
                    </g>
                </g>
                <g filter="url(#filter-14)" id="8a">
                    <g transform="translate(0.000000, 292.000000)">
                        <line x1="0" y1="145.289312" x2="144.964317" y2="0" id="Path" fill="#000000" fill-rule="nonzero"></line>
                        <path d="M84.8537063,3.70716485 L84.8537063,22.2114387 L90.4571044,22.2114387 C107.330258,22.0379119 122.283147,37.0874236 122.283147,54.0930564 L122.283147,59.6616913 L140.950647,59.6616913 L140.950647,54.1403819 C141.218225,26.8177882 117.750061,3.43898696 90.3626652,3.65983934 L84.8537063,3.70716485 Z" id="Path" fill="#000000" fill-rule="nonzero"></path>
                        <path d="M140.950647,85.9904492 L122.235927,85.9904492 L122.235927,91.6064096 C122.409066,108.706693 107.534877,123.614229 90.4098848,123.440702 L84.8064866,123.440702 L84.8064866,141.976526 L90.3154455,141.976526 C117.718581,142.197378 141.171006,118.787027 140.950647,91.4959834 L140.950647,85.9904492 Z" id="Path" fill="#000000" fill-rule="nonzero"></path>
                    </g>
                </g>
                <g filter="url(#filter-15)" id="10a">
                    <g transform="translate(146.000000, 438.000000)">
                        <line x1="0" y1="145.729953" x2="145.514035" y2="0" id="Path" fill="#000000" fill-rule="nonzero"></line>
                        <path d="M82.5515347,22.1138017 L82.5515347,3.88571086 L76.6527433,4.24900903 C55.0290991,5.54424599 37.2223198,24.2304084 37.2223198,45.7755694 C37.2223198,67.3207305 55.2025929,86.2596221 76.7631485,87.112583 L82.5515347,87.3495166 L82.5515347,69.2477904 L77.2836301,68.9160833 C65.2264502,67.8927592 55.883698,57.9228188 55.6284415,45.8071606 C55.9063285,33.6082118 65.2765253,23.5581867 77.4098075,22.4455087 L82.5515347,22.1138017 Z" id="Path" fill="#000000" fill-rule="nonzero"></path>
                        <path d="M56.0542901,96.0370815 L37.6639406,96.0370815 L37.6639406,101.549736 C37.4431302,123.663538 56.5905438,142.823568 78.9554801,142.823568 C100.042871,142.823568 118.102005,126.064465 120.404741,103.840094 L121.035628,97.6956166 L102.266746,97.6956166 L101.99862,102.987133 C101.20858,115.381649 90.759399,124.923429 78.3630743,124.570182 C65.9667496,124.216935 56.076233,114.095552 55.9912014,101.676101 L56.0542901,96.0370815 Z" id="Path" fill="#000000" fill-rule="nonzero"></path>
                    </g>
                </g>
                <g filter="url(#filter-16)" id="10b">
                    <g transform="translate(1167.000000, 0.000000)">
                        <line x1="0" y1="0" x2="145.514035" y2="145.729953" id="Path" fill="#000000" fill-rule="nonzero"></line>
                        <path d="M44.6352394,107.409894 C44.750615,122.815915 57.0158445,135.369548 72.3928884,135.820234 C87.7699322,136.27092 100.747233,124.457121 101.762037,109.084225 L109.017235,109.084225 C106.966853,128.844486 90.9738732,143.060501 73.1040052,143.060501 C53.7515534,143.044706 37.1907755,126.364581 37.3800415,107.409894 L44.6352394,107.409894 Z M71.1955727,4.89662751 L71.1955727,11.9888396 C56.1792495,13.323868 44.5756213,25.7684529 44.2724795,40.8631464 C44.5579386,55.9224193 56.2030362,68.3089977 71.1955727,69.5005195 L71.1955727,76.5927316 C52.5528685,75.8345441 36.9384208,59.4387398 36.9384208,40.7999641 C36.9384208,22.1611884 52.5528685,6.01811317 71.1955727,4.89662751" id="Shape" fill="#000000" fill-rule="nonzero"></path>
                    </g>
                </g>
                <g filter="url(#filter-17)" id="11a">
                    <g transform="translate(730.000000, 438.000000)">
                        <line x1="0" y1="145.729953" x2="145.514035" y2="0" id="Path" fill="#000000" fill-rule="nonzero"></line>
                        <path d="M43.5154154,84.9012028 L24.7465338,84.9012028 L24.7465338,90.4138577 C24.4784069,118.466795 47.852762,142.381292 75.5171471,142.381292 C103.181532,142.381292 126.366621,118.545772 126.177355,90.4138577 L126.177355,84.9012028 L107.329613,84.9012028 L107.329613,90.5244267 C107.487335,108.326037 92.7088118,123.695129 75.4540585,123.695129 C58.1993051,123.695129 43.2315164,108.42081 43.4050102,90.5244267 L43.5154154,84.9012028 Z" id="Path" fill-opacity="0.204398629" fill="#000000" fill-rule="nonzero"></path>
                    </g>
                </g>
                <g filter="url(#filter-18)" id="15a">
                    <g transform="translate(876.000000, 0.000000)">
                        <line x1="0" y1="145.729953" x2="145.514035" y2="0" id="Path" fill="#000000" fill-rule="nonzero"></line>
                        <polygon id="Rectangle" fill="#000000" fill-rule="nonzero" transform="translate(40.555796, 36.776840) rotate(-41.000000) translate(-40.555796, -36.776840) " points="-0.621462673 27.4541698 81.746786 27.3936934 81.7330545 46.0995104 -0.635194234 46.1599868"></polygon>
                        <polygon id="Rectangle" fill="#000000" fill-rule="nonzero" transform="translate(40.558658, 108.516560) rotate(-49.000000) translate(-40.558658, -108.516560) " points="31.2359878 67.3396643 49.9418048 67.3259328 49.8813285 149.693456 31.1755115 149.707188"></polygon>
                    </g>
                </g>
                <g filter="url(#filter-19)" id="15b">
                    <g transform="translate(291.000000, 438.000000)">
                        <line x1="0" y1="0" x2="145.514035" y2="145.838842" id="Path" fill="#000000" fill-rule="nonzero"></line>
                        <path d="M9.60525117,79.3846374 L82.7723451,140.843712 L77.9145169,146.724055 L4.55815696,85.0752925 L9.60525117,79.3846374 Z M77.7567952,4.45767976 L82.7723451,10.1641421 L10.5042648,70.4692779 L5.88301919,64.3676312 L77.7567952,4.45767976 Z" id="Shape" fill="#000000" fill-rule="nonzero"></path>
                    </g>
                </g>
                <g filter="url(#filter-20)" id="16a">
                    <g transform="translate(291.000000, 147.000000)">
                        <line x1="0" y1="145.729953" x2="145.514035" y2="0" id="Path" fill="#000000" fill-rule="nonzero"></line>
                        <rect id="Rectangle" fill-opacity="0.201170168" fill="#000000" fill-rule="nonzero" x="43.6415928" y="4.89662751" width="74.66545" height="18.7177536"></rect>
                        <rect id="Rectangle" fill-opacity="0.201170168" fill="#000000" fill-rule="nonzero" x="121.824237" y="4.89662751" width="18.6900208" height="91.8038681"></rect>
                    </g>
                </g>
                <g filter="url(#filter-21)" id="16b_1">
                    <g transform="translate(146.000000, 291.000000)">
                        <line x1="0" y1="0" x2="145.514035" y2="145.729953" id="Path" fill="#000000" fill-rule="nonzero"></line>
                        <path d="M91.7467095,141.275601 L63.3568045,141.275601 L63.3568045,133.693727 L91.7467095,133.693727 L91.7467095,141.275601 Z M141.507904,92.3093264 L133.968807,92.3093264 L133.968807,53.4680133 L141.507904,53.4680133 L141.507904,92.3093264 Z M91.7467095,12.4785024 L63.3568045,12.4785024 L63.3568045,4.89662751 L91.7467095,4.89662751 L91.7467095,12.4785024 Z" id="Shape" fill-opacity="0.198409501" fill="#000000" fill-rule="nonzero"></path>
                    </g>
                </g>
                <g filter="url(#filter-22)" id="16b">
                    <g>
                        <line x1="0" y1="0" x2="145.514035" y2="145.729953" id="Path" fill="#000000" fill-rule="nonzero"></line>
                        <rect id="Rectangle" fill="#000000" fill-rule="nonzero" x="51.3699558" y="4.89662751" width="74.66545" height="7.58187486"></rect>
                        <rect id="Rectangle" fill="#000000" fill-rule="nonzero" x="130.924778" y="4.89662751" width="7.99648989" height="91.8038681"></rect>
                    </g>
                </g>
                <g filter="url(#filter-23)" id="17a">
                    <g transform="translate(1167.000000, 438.000000)">
                        <line x1="0" y1="145.729953" x2="145.514035" y2="0" id="Path" fill="#000000" fill-rule="nonzero"></line>
                        <rect id="Rectangle" fill-opacity="0.199447525" fill="#000000" fill-rule="nonzero" x="63.309488" y="4.01207545" width="28.4372214" height="18.7177536"></rect>
                        <rect id="Rectangle" fill-opacity="0.199447525" fill="#000000" fill-rule="nonzero" x="121.477249" y="53.4680133" width="18.6900208" height="38.7781308"></rect>
                        <rect id="Rectangle" fill-opacity="0.199447525" fill="#000000" fill-rule="nonzero" x="63.309488" y="122.099776" width="28.4372214" height="18.7177536"></rect>
                    </g>
                </g>
                <g filter="url(#filter-24)" id="18a">
                    <g transform="translate(291.000000, 291.000000)">
                        <line x1="0" y1="145.729953" x2="145.514035" y2="0" id="Path" fill="#000000" fill-rule="nonzero"></line>
                        <polygon id="Rectangle" fill="#000000" fill-rule="nonzero" transform="translate(64.879259, 107.355907) rotate(-50.000000) translate(-64.879259, -107.355907) " points="55.5576462 64.1757326 74.2639412 64.1620768 74.2008713 150.536082 55.4945763 150.549738"></polygon>
                        <rect id="Rectangle" fill="#000000" fill-rule="nonzero" x="4.00613103" y="4.45435148" width="18.6900208" height="136.82125"></rect>
                    </g>
                </g>
                <g filter="url(#filter-25)" id="18b">
                    <g transform="translate(146.000000, 147.000000)">
                        <line x1="0" y1="0" x2="145.514035" y2="145.729953" id="Path" fill="#000000" fill-rule="nonzero"></line>
                        <path d="M26.3868394,81.1102654 L91.7309373,135.415444 L86.8573369,141.733673 L21.5132391,86.6229202 L26.3868394,81.1102654 Z M12.191887,140.375254 L4.17962489,140.375254 L4.17962489,3.56979941 L12.1761148,3.56979941 L12.191887,140.375254 Z" id="Shape" fill="#000000" fill-rule="nonzero"></path>
                    </g>
                </g>
                <g filter="url(#filter-26)" id="11b">
                    <g transform="translate(0.000000, 147.000000)">
                        <line x1="0" y1="0" x2="145.514035" y2="145.729953" id="Path" fill="#000000" fill-rule="nonzero"></line>
                        <path d="M120.594007,96.7004956 L112.944505,96.7004956 C113.149543,117.566447 95.89479,135.43124 75.5171471,135.43124 C55.1395043,135.43124 37.7112571,117.566447 37.8532066,96.7004956 L30.2510209,96.7004956 C30.0617549,121.783865 51.022968,143.044706 75.5171471,143.044706 C100.011326,143.044706 120.783273,121.783865 120.594007,96.7004956 Z" id="Path" fill-opacity="0.198921684" fill="#000000" fill-rule="nonzero"></path>
                    </g>
                </g>
                <g filter="url(#filter-27)" id="12a">
                    <g transform="translate(584.000000, 0.000000)">
                        <line x1="0" y1="145.729953" x2="145.514035" y2="0" id="Path" fill="#000000" fill-rule="nonzero"></line>
                        <path d="M72.8201062,4.45435148 C45.897013,4.45435148 23.2008612,27.4053185 23.2008612,54.589499 L23.2008612,60.1653361 L41.7647046,60.1653361 L41.7647046,54.589499 C41.7647046,37.5460761 56.1173788,22.9983537 72.8201062,22.9983537 C89.5228336,22.9983537 103.875508,37.6092584 103.875508,54.589499 L103.875508,60.1653361 L122.439351,60.1653361 L122.439351,54.589499 C122.439351,27.4053185 99.7431994,4.45435148 72.8201062,4.45435148" id="Path" fill="#000000" fill-rule="nonzero"></path>
                        <path d="M41.7647046,87.223152 L23.2008612,87.223152 L23.2008612,92.7831936 C23.2008612,120.046352 45.897013,142.918341 72.8201062,142.918341 C99.7431994,142.918341 122.439351,120.046352 122.439351,92.7831936 L122.439351,87.223152 L103.875508,87.223152 L103.875508,92.7831936 C103.875508,109.826616 89.5228336,124.453317 72.8201062,124.453317 C56.1173788,124.453317 41.7647046,109.826616 41.7647046,92.7831936 L41.7647046,87.223152 Z" id="Path" fill-opacity="0.203123293" fill="#000000" fill-rule="nonzero"></path>
                    </g>
                </g>
                <g filter="url(#filter-28)" id="12b">
                    <g transform="translate(1021.000000, 291.000000)">
                        <line x1="0" y1="0" x2="145.514035" y2="145.729953" id="Path" fill="#000000" fill-rule="nonzero"></line>
                        <path d="M36.3548505,98.4853953 C36.3548505,118.545772 53.1364387,135.71556 72.9778279,135.71556 C92.819217,135.71556 109.600805,118.545772 109.600805,98.4853953 L117.029497,98.4853953 C117.029497,122.605235 96.8095758,143.044706 72.9778279,143.044706 C49.1460799,143.044706 28.9261587,122.605235 28.9261587,98.4853953 L36.3548505,98.4853953 Z M72.9778279,2.22717574 C96.8095758,2.22717574 117.029497,22.7614201 117.029497,46.7864861 L109.600805,46.7864861 C109.600805,26.7261089 92.8034448,9.55632143 72.9778279,9.55632143 C53.1522109,9.55632143 36.3548505,26.7261089 36.3548505,46.7864861 L28.9261587,46.7864861 C28.9261587,22.6824423 49.1460799,2.22717574 72.9778279,2.22717574" id="Shape" fill="#000000" fill-rule="nonzero"></path>
                    </g>
                </g>
                <g filter="url(#filter-29)" id="13a">
                    <g transform="translate(437.000000, 438.000000)">
                        <line x1="0" y1="145.729953" x2="145.514035" y2="0" id="Path" fill="#000000" fill-rule="nonzero"></line>
                        <path d="M88.5134147,2.89058979 L88.5134147,21.0081116 L94.0809905,21.0081116 C110.026654,21.0081116 123.890391,34.9713978 123.890391,51.0196996 C123.829461,55.6457758 122.432602,60.1552715 119.868488,64.0036602 L119.600361,64.4459363 L119.505728,64.6512787 C119.137544,65.331335 118.732107,65.9904894 118.291271,66.6257253 L117.34494,67.9209623 L117.013725,68.3948294 L116.303977,69.4689284 L114.253595,72.7702031 L116.714054,75.8187486 C121.02046,81.0835818 123.421814,87.6525662 123.527631,94.4575243 C123.268067,110.763825 110.172439,123.941702 93.8917245,124.279565 L88.3241487,124.279565 L88.3241487,142.381292 L93.8917245,142.381292 C120.199145,142.066572 141.458661,120.803543 141.807575,94.4575243 L141.807575,94.1574084 C141.785823,86.6534678 139.818425,79.2838272 136.09805,72.7702031 L135.987645,72.5648606 L136.082278,72.3911093 C139.964593,65.9267275 142.065373,58.5467362 142.170335,51.003904 C141.87988,24.5346522 120.511298,3.15541887 94.0809905,2.89058979 L88.5134147,2.89058979 Z" id="Path" fill-opacity="0.20224063" fill="#000000" fill-rule="nonzero"></path>
                    </g>
                </g>
                <g filter="url(#filter-30)" id="13b">
                    <g transform="translate(876.000000, 147.000000)">
                        <line x1="0" y1="0" x2="145.514035" y2="145.729953" id="Path" fill="#000000" fill-rule="nonzero"></line>
                        <path d="M95.6739796,140.81753 C120.026209,140.81753 140.671979,120.172716 140.671979,95.8159435 C140.700134,87.5391335 138.183551,79.4542638 133.464098,72.659634 C133.807406,71.9804815 134.19739,71.3260237 134.631238,70.700983 C138.677784,64.4186739 140.905348,57.1355426 141.066283,49.6612803 C140.742718,24.8050923 120.683034,4.74368145 95.8632457,4.45435148 L95.8632457,11.862475 C116.130483,11.862475 133.464098,29.3955606 133.464098,49.6454847 C133.392871,55.7520075 131.563741,61.7082439 128.196193,66.7994766 C127.423357,68.3790339 125.48338,70.8905299 124.505505,72.438496 C129.907229,79.0429115 132.924869,87.2799892 133.069793,95.8159435 C133.069793,116.081663 115.925445,133.425202 95.6739796,133.425202 L95.6739796,140.81753 Z" id="Path" fill="#000000" fill-rule="nonzero"></path>
                    </g>
                </g>
                <g filter="url(#filter-31)" id="14a">
                    <g transform="translate(1021.000000, 147.000000)">
                        <line x1="0" y1="145.729953" x2="145.514035" y2="0" id="Path" fill="#000000" fill-rule="nonzero"></line>
                        <polygon id="Path" fill-opacity="0.200632375" fill="#000000" fill-rule="nonzero" points="78.7819862 132.335307 39.6512339 67.3997084 23.4532159 76.6085272 62.8047786 142.381292"></polygon>
                        <polygon id="Path" fill-opacity="0.200632375" fill="#000000" fill-rule="nonzero" points="122.171224 71.2538281 105.531586 62.1397827 71.968409 116.997806 88.1821992 126.633106"></polygon>
                    </g>
                </g>
                <g filter="url(#filter-32)" id="14b">
                    <g transform="translate(584.000000, 438.000000)">
                        <line x1="0" y1="0" x2="145.514035" y2="145.729953" id="Path" fill="#000000" fill-rule="nonzero"></line>
                        <path d="M48.8937252,81.9948175 L82.4411295,137.611029 L75.8956792,141.717878 L42.3798192,85.7225726 L48.8937252,81.9948175 Z M106.257105,81.9948175 L113.117999,85.7541637 L85.1697148,131.466551 L78.5138593,127.501862 L106.257105,81.9948175 Z" id="Shape" fill="#000000" fill-rule="nonzero"></path>
                    </g>
                </g>
                <g filter="url(#filter-33)" id="8b">
                    <g transform="translate(437.000000, 147.000000)">
                        <line x1="0" y1="0" x2="146.317257" y2="146.534367" id="Path" fill="#000000" fill-rule="nonzero"></line>
                        <path d="M139.640644,50.9629771 C139.830052,26.6828491 118.774256,5.54838864 94.1512877,5.73807714 L94.1512877,13.1833508 C114.433669,12.9778549 131.953858,30.808574 131.953858,50.9629771 L139.640644,50.9629771 Z" id="Path" fill="#000000" fill-rule="nonzero"></path>
                        <path d="M139.640644,97.8002294 L131.953858,97.8002294 C132.15905,118.160128 114.591509,135.737929 94.1512877,135.595663 L94.1512877,143.025129 C118.774256,143.230625 139.830052,122.080357 139.640644,97.8002294" id="Path" fill="#000000" fill-rule="nonzero"></path>
                    </g>
                </g>
                <g filter="url(#filter-34)" id="9a">
                    <g transform="translate(437.000000, 291.000000)">
                        <line x1="0" y1="145.729953" x2="145.514035" y2="0" id="Path" fill="#000000" fill-rule="nonzero"></line>
                        <rect id="Rectangle" fill="#000000" fill-rule="nonzero" x="35.9132297" y="3.04854552" width="73.8137528" height="18.7177536"></rect>
                        <path d="M112.976049,104.440326 L108.512526,108.626153 L108.244399,108.878882 C103.410237,113.506315 97.7131649,117.134664 91.4785826,119.556689 L91.2893166,119.556689 L90.7057463,119.746236 C84.624491,121.910118 78.2319695,123.067814 71.779143,123.173875 L71.6056491,123.173875 C65.38039,123.050129 59.2084879,121.995994 53.2941604,120.046352 L52.8367675,119.904192 L53.0575779,119.998965 C47.2829917,117.629925 41.8804289,114.437843 37.0172816,110.521622 L33.1215558,107.409894 L20.1568325,120.472832 L24.6361286,124.374339 C37.8431508,135.634189 54.6081373,141.840841 71.9526369,141.891629 C89.9808217,141.74274 107.355373,135.111105 120.909451,123.205466 L124.789404,119.73044 L112.976049,104.440326 Z" id="Path" fill="#000000" fill-rule="nonzero"></path>
                    </g>
                </g>
                <g filter="url(#filter-35)" id="9b">
                    <g transform="translate(291.000000, 0.000000)">
                        <line x1="0" y1="0" x2="145.514035" y2="145.729953" id="Path" fill="#000000" fill-rule="nonzero"></line>
                        <rect id="Rectangle" fill="#000000" fill-rule="nonzero" x="35.9132297" y="4.13844003" width="73.8137528" height="7.58187486"></rect>
                        <path d="M71.873776,141.717878 C88.5804044,141.560293 104.673844,135.393666 117.218763,124.342748 L112.329391,118.024519 C106.829865,123.347925 100.311232,127.501325 93.1662047,130.234496 C86.3361493,132.733199 79.1433271,134.093859 71.873776,134.262367 C64.7519421,134.096926 57.6980022,132.834283 50.9598794,130.518817 C44.7207665,127.956111 38.8787486,124.514843 33.610493,120.299081 L28.2794998,125.574802 C40.4587058,135.930276 55.8973437,141.647244 71.873776,141.717878" id="Path" fill="#000000" fill-rule="nonzero"></path>
                    </g>
                </g>
                <g filter="url(#filter-36)" id="1b">
                    <g transform="translate(730.000000, 291.000000)">
                        <line x1="0" y1="0" x2="145.514035" y2="145.729953" id="Path" fill="#000000" fill-rule="nonzero"></line>
                        <rect id="Rectangle" fill="#000000" fill-rule="nonzero" x="5.99342438" y="81.1102654" width="65.6595413" height="6.68152722"></rect>
                        <rect id="Rectangle" fill="#000000" fill-rule="nonzero" x="64.9971101" y="90.4612444" width="6.65585549" height="50.3562855"></rect>
                    </g>
                </g>
            </g>
        </g>
    </g>
</svg>